# xmcd
#
# Track frame offsets: 
#        150
#        15501
#        31651
#
# Disc length: 650 seconds
#
# Revision: 0
# Processed by: cddbd v1.5.2PL0 Copyright (c) Steve Scherf et al.
# Submitted via: ExactAudioCopy v0.99pb3
#
DISCID=12028803
DTITLE=Don Burnham - Apple And Google And Gold
DYEAR=2008
DGENRE=Country
TTITLE0=Apple And Google And Gold
TTITLE1=A Dog's Life
TTITLE2=Driving Lesson
EXTD=
EXTT0=
EXTT1=
EXTT2=
PLAYORDER=
